<?xml version="1.0" standalone="no"?><!DOCTYPE svg PUBLIC "-//W3C//DTD SVG 1.1//EN" "http://www.w3.org/Graphics/SVG/1.1/DTD/svg11.dtd"><svg t="1722707756685" class="icon" viewBox="0 0 1024 1024" version="1.1" xmlns="http://www.w3.org/2000/svg" p-id="7925" xmlns:xlink="http://www.w3.org/1999/xlink" width="200" height="200"><path d="M371.058624 644.676296l133.981308-77.865761-0.870008 236.642311-133.981309 77.865761z" fill="#EC949E" p-id="7926"></path><path d="M400.638912 595.085811l133.981309-77.86576-29.580289 49.590484-133.981308 77.865761z" fill="#A0D0BB" p-id="7927"></path><path d="M461.539507 491.119796L595.520816 413.254036l156.166525 533.315208-133.981309 77.430756zM274.487681 77.86576L408.468989 0l97.875956 56.550552L372.363636 134.416313z" fill="#A0D0BB" p-id="7928"></path><path d="M372.363636 134.416313L506.344945 56.550552l-0.870009 266.2226-133.981308 77.86576z" fill="#EC949E" p-id="7929"></path><path d="M491.989805 203.581988l133.981308-77.86576 104.40102 60.46559-133.546305 77.430756z" fill="#A0D0BB" p-id="7930"></path><path d="M596.825828 263.612574l133.546305-77.430756-134.851317 227.072218-133.981309 77.86576z" fill="#EC949E" p-id="7931"></path><path d="M461.539507 491.119796l156.166525 532.880204-115.276125-66.120646-101.790995-362.793543-29.580288 49.590485-0.870009 236.642311-97.875956-56.550553L274.487681 77.86576l97.875955 56.550553-0.870008 266.222599 120.496177-197.056924 104.836023 60.030586z" fill="#978DAD" p-id="7932"></path></svg>