<?xml version="1.0" standalone="no"?><!DOCTYPE svg PUBLIC "-//W3C//DTD SVG 1.1//EN" "http://www.w3.org/Graphics/SVG/1.1/DTD/svg11.dtd"><svg t="1722501168178" class="icon" viewBox="0 0 1024 1024" version="1.1" xmlns="http://www.w3.org/2000/svg" p-id="13643" xmlns:xlink="http://www.w3.org/1999/xlink" width="200" height="200"><path d="M682.672 113.776H227.552a113.776 113.776 0 0 0-113.776 113.776v568.896a113.776 113.776 0 0 0 113.776 113.776h568.896V227.552a113.776 113.776 0 0 0-113.776-113.776zM483.552 711.104H312.896a28.448 28.448 0 1 1 0-56.896h170.656a28.448 28.448 0 0 1 0 56.896z m113.776-170.672H312.896a28.448 28.448 0 1 1 0-56.896h284.432a28.448 28.448 0 0 1 0 56.896z m0-170.672H312.896a28.448 28.448 0 1 1 0-56.896h284.432a28.448 28.448 0 0 1 0 56.896z" fill="#3075EE" p-id="13644"></path><path d="M853.328 455.104h113.776A56.896 56.896 0 0 1 1024 512v341.328a56.896 56.896 0 0 1-56.896 56.896h-113.776z" fill="#ADCBFF" p-id="13645"></path></svg>